<mxfile host="www.draw.io" modified="2019-11-27T08:51:34.645Z" agent="Mozilla/5.0 (Windows NT 6.1; Win64; x64) AppleWebKit/537.36 (KHTML, like Gecko) Chrome/78.0.3904.108 Safari/537.36" etag="0BnvOJIrfm4O4y114kcI" version="12.3.1" type="github" pages="2">
  <diagram id="qdzyXFL2CLfcUK0y0eIn" name="usecase">
    <mxGraphModel dx="1408" dy="758" grid="1" gridSize="10" guides="1" tooltips="1" connect="1" arrows="1" fold="1" page="1" pageScale="1" pageWidth="1169" pageHeight="827" math="0" shadow="0">
      <root>
        <mxCell id="0"/>
        <mxCell id="1" parent="0"/>
        <mxCell id="OyeBkJNlhH5-oV3CyQZA-1" value="Actor" style="shape=umlActor;verticalLabelPosition=bottom;labelBackgroundColor=#ffffff;verticalAlign=top;html=1;" parent="1" vertex="1">
          <mxGeometry x="100" y="90" width="30" height="60" as="geometry"/>
        </mxCell>
        <mxCell id="OyeBkJNlhH5-oV3CyQZA-2" value="Use Case" style="ellipse;whiteSpace=wrap;html=1;" parent="1" vertex="1">
          <mxGeometry x="260" y="80" width="140" height="70" as="geometry"/>
        </mxCell>
      </root>
    </mxGraphModel>
  </diagram>
  <diagram id="0dGOpen_IbUtNvX3jacR" name="03_biz_정기상여일할계산">
    <mxGraphModel dx="1656" dy="892" grid="1" gridSize="10" guides="1" tooltips="1" connect="1" arrows="1" fold="1" page="1" pageScale="1" pageWidth="1169" pageHeight="827" math="0" shadow="0">
      <root>
        <mxCell id="0-QEXs9-GGtInFoUXj8y-0"/>
        <mxCell id="0-QEXs9-GGtInFoUXj8y-1" parent="0-QEXs9-GGtInFoUXj8y-0"/>
        <mxCell id="0-QEXs9-GGtInFoUXj8y-2" value="" style="strokeWidth=2;html=1;shape=mxgraph.flowchart.start_2;whiteSpace=wrap;" vertex="1" parent="0-QEXs9-GGtInFoUXj8y-1">
          <mxGeometry x="20" y="90" width="100" height="100" as="geometry"/>
        </mxCell>
        <mxCell id="0-QEXs9-GGtInFoUXj8y-3" value="F_CPN_GET_REG_BONUS_MON3" style="text;html=1;strokeColor=none;fillColor=none;align=left;verticalAlign=middle;whiteSpace=wrap;rounded=0;" vertex="1" parent="0-QEXs9-GGtInFoUXj8y-1">
          <mxGeometry x="20" y="30" width="350" height="20" as="geometry"/>
        </mxCell>
        <mxCell id="0-QEXs9-GGtInFoUXj8y-13" value="급여계산" style="rounded=1;whiteSpace=wrap;html=1;absoluteArcSize=1;arcSize=14;strokeWidth=2;" vertex="1" parent="0-QEXs9-GGtInFoUXj8y-1">
          <mxGeometry x="250" y="90" width="140" height="100" as="geometry"/>
        </mxCell>
        <mxCell id="0-QEXs9-GGtInFoUXj8y-14" value="정기상여 &lt;br&gt;일할계산" style="rounded=1;whiteSpace=wrap;html=1;absoluteArcSize=1;arcSize=14;strokeWidth=2;" vertex="1" parent="0-QEXs9-GGtInFoUXj8y-1">
          <mxGeometry x="534" y="90" width="147" height="100" as="geometry"/>
        </mxCell>
        <mxCell id="0-QEXs9-GGtInFoUXj8y-15" value="" style="endArrow=classic;html=1;exitX=1;exitY=0.5;exitDx=0;exitDy=0;exitPerimeter=0;entryX=0;entryY=0.5;entryDx=0;entryDy=0;" edge="1" parent="0-QEXs9-GGtInFoUXj8y-1" source="0-QEXs9-GGtInFoUXj8y-2" target="0-QEXs9-GGtInFoUXj8y-13">
          <mxGeometry width="50" height="50" relative="1" as="geometry">
            <mxPoint x="215" y="500" as="sourcePoint"/>
            <mxPoint x="265" y="450" as="targetPoint"/>
          </mxGeometry>
        </mxCell>
        <mxCell id="0-QEXs9-GGtInFoUXj8y-16" value="" style="shape=partialRectangle;whiteSpace=wrap;html=1;left=0;right=0;fillColor=none;" vertex="1" parent="0-QEXs9-GGtInFoUXj8y-1">
          <mxGeometry x="240" y="280" width="120" height="60" as="geometry"/>
        </mxCell>
        <mxCell id="0-QEXs9-GGtInFoUXj8y-17" value="" style="endArrow=classic;html=1;entryX=0;entryY=0.5;entryDx=0;entryDy=0;" edge="1" parent="0-QEXs9-GGtInFoUXj8y-1" source="0-QEXs9-GGtInFoUXj8y-13" target="0-QEXs9-GGtInFoUXj8y-14">
          <mxGeometry width="50" height="50" relative="1" as="geometry">
            <mxPoint x="130" y="150" as="sourcePoint"/>
            <mxPoint x="260" y="150" as="targetPoint"/>
          </mxGeometry>
        </mxCell>
      </root>
    </mxGraphModel>
  </diagram>
</mxfile>
